<mxfile host="app.diagrams.net" modified="2023-11-29T10:28:18.571Z" agent="Mozilla/5.0 (Macintosh; Intel Mac OS X 10_15_7) AppleWebKit/537.36 (KHTML, like Gecko) Chrome/118.0.0.0 Safari/537.36 OPR/104.0.0.0" etag="dflQ3BIrCU9Wp3rLI3n_" version="22.1.4" type="device">
  <diagram name="Page-1" id="9vk3qdTaGwp1t06MYDEw">
    <mxGraphModel dx="1405" dy="965" grid="1" gridSize="10" guides="1" tooltips="1" connect="1" arrows="1" fold="1" page="1" pageScale="1" pageWidth="827" pageHeight="1169" math="0" shadow="0">
      <root>
        <mxCell id="0" />
        <mxCell id="1" parent="0" />
        <mxCell id="eekpUcKEbpZ2ipYLjSLb-1" value="Start" style="ellipse;whiteSpace=wrap;html=1;aspect=fixed;fillColor=#dae8fc;strokeColor=#6c8ebf;" vertex="1" parent="1">
          <mxGeometry x="360" y="30" width="80" height="80" as="geometry" />
        </mxCell>
        <mxCell id="eekpUcKEbpZ2ipYLjSLb-2" value="" style="endArrow=none;html=1;rounded=0;entryX=0.5;entryY=1;entryDx=0;entryDy=0;" edge="1" parent="1" target="eekpUcKEbpZ2ipYLjSLb-1">
          <mxGeometry width="50" height="50" relative="1" as="geometry">
            <mxPoint x="400" y="210" as="sourcePoint" />
            <mxPoint x="330" y="290" as="targetPoint" />
          </mxGeometry>
        </mxCell>
        <mxCell id="eekpUcKEbpZ2ipYLjSLb-3" value="Forside" style="rhombus;whiteSpace=wrap;html=1;" vertex="1" parent="1">
          <mxGeometry x="340" y="210" width="120" height="120" as="geometry" />
        </mxCell>
        <mxCell id="eekpUcKEbpZ2ipYLjSLb-4" value="" style="endArrow=none;html=1;rounded=0;entryX=0.5;entryY=0;entryDx=0;entryDy=0;exitX=0.5;exitY=0;exitDx=0;exitDy=0;" edge="1" parent="1" source="eekpUcKEbpZ2ipYLjSLb-6" target="eekpUcKEbpZ2ipYLjSLb-5">
          <mxGeometry width="50" height="50" relative="1" as="geometry">
            <mxPoint x="490" y="380" as="sourcePoint" />
            <mxPoint x="354" y="380" as="targetPoint" />
            <Array as="points">
              <mxPoint x="400" y="330" />
            </Array>
          </mxGeometry>
        </mxCell>
        <mxCell id="eekpUcKEbpZ2ipYLjSLb-5" value="Header" style="rounded=0;whiteSpace=wrap;html=1;" vertex="1" parent="1">
          <mxGeometry x="300" y="380" width="60" height="60" as="geometry" />
        </mxCell>
        <mxCell id="eekpUcKEbpZ2ipYLjSLb-6" value="Main content" style="rounded=0;whiteSpace=wrap;html=1;" vertex="1" parent="1">
          <mxGeometry x="444" y="380" width="60" height="60" as="geometry" />
        </mxCell>
        <mxCell id="eekpUcKEbpZ2ipYLjSLb-8" value="" style="endArrow=none;html=1;rounded=0;entryX=0.5;entryY=1;entryDx=0;entryDy=0;exitX=0.5;exitY=0;exitDx=0;exitDy=0;" edge="1" parent="1" source="eekpUcKEbpZ2ipYLjSLb-12" target="eekpUcKEbpZ2ipYLjSLb-5">
          <mxGeometry width="50" height="50" relative="1" as="geometry">
            <mxPoint x="330" y="480" as="sourcePoint" />
            <mxPoint x="340" y="440" as="targetPoint" />
          </mxGeometry>
        </mxCell>
        <mxCell id="eekpUcKEbpZ2ipYLjSLb-10" value="" style="endArrow=none;html=1;rounded=0;exitX=0.5;exitY=0;exitDx=0;exitDy=0;entryX=0.5;entryY=1;entryDx=0;entryDy=0;" edge="1" parent="1" source="eekpUcKEbpZ2ipYLjSLb-11" target="eekpUcKEbpZ2ipYLjSLb-6">
          <mxGeometry width="50" height="50" relative="1" as="geometry">
            <mxPoint x="530" y="490" as="sourcePoint" />
            <mxPoint x="490" y="440" as="targetPoint" />
          </mxGeometry>
        </mxCell>
        <mxCell id="eekpUcKEbpZ2ipYLjSLb-11" value="Om megg" style="whiteSpace=wrap;html=1;" vertex="1" parent="1">
          <mxGeometry x="510" y="460" width="60" height="60" as="geometry" />
        </mxCell>
        <mxCell id="eekpUcKEbpZ2ipYLjSLb-12" value="Knapper" style="whiteSpace=wrap;html=1;" vertex="1" parent="1">
          <mxGeometry x="230" y="460" width="60" height="60" as="geometry" />
        </mxCell>
        <mxCell id="eekpUcKEbpZ2ipYLjSLb-13" value="" style="endArrow=none;html=1;rounded=0;entryX=0;entryY=1;entryDx=0;entryDy=0;exitX=0.5;exitY=0;exitDx=0;exitDy=0;" edge="1" parent="1" source="eekpUcKEbpZ2ipYLjSLb-16" target="eekpUcKEbpZ2ipYLjSLb-12">
          <mxGeometry width="50" height="50" relative="1" as="geometry">
            <mxPoint x="180" y="580" as="sourcePoint" />
            <mxPoint x="230" y="530" as="targetPoint" />
          </mxGeometry>
        </mxCell>
        <mxCell id="eekpUcKEbpZ2ipYLjSLb-14" value="" style="endArrow=none;html=1;rounded=0;entryX=1;entryY=1;entryDx=0;entryDy=0;exitX=0.5;exitY=0;exitDx=0;exitDy=0;" edge="1" parent="1" source="eekpUcKEbpZ2ipYLjSLb-18" target="eekpUcKEbpZ2ipYLjSLb-12">
          <mxGeometry width="50" height="50" relative="1" as="geometry">
            <mxPoint x="340" y="580" as="sourcePoint" />
            <mxPoint x="300" y="540" as="targetPoint" />
          </mxGeometry>
        </mxCell>
        <mxCell id="eekpUcKEbpZ2ipYLjSLb-16" value="Går til &quot;Om megg&quot;" style="rounded=1;whiteSpace=wrap;html=1;arcSize=26;" vertex="1" parent="1">
          <mxGeometry x="120" y="590" width="120" height="60" as="geometry" />
        </mxCell>
        <mxCell id="eekpUcKEbpZ2ipYLjSLb-18" value="Går til &quot;Prosjekter&quot;" style="rounded=1;whiteSpace=wrap;html=1;arcSize=24;" vertex="1" parent="1">
          <mxGeometry x="270" y="590" width="120" height="60" as="geometry" />
        </mxCell>
        <mxCell id="eekpUcKEbpZ2ipYLjSLb-19" value="" style="endArrow=none;html=1;rounded=0;exitX=0.5;exitY=0;exitDx=0;exitDy=0;entryX=0.5;entryY=1;entryDx=0;entryDy=0;" edge="1" parent="1" source="eekpUcKEbpZ2ipYLjSLb-20">
          <mxGeometry width="50" height="50" relative="1" as="geometry">
            <mxPoint x="596" y="570" as="sourcePoint" />
            <mxPoint x="540" y="520" as="targetPoint" />
          </mxGeometry>
        </mxCell>
        <mxCell id="eekpUcKEbpZ2ipYLjSLb-20" value="Prosjekter" style="whiteSpace=wrap;html=1;" vertex="1" parent="1">
          <mxGeometry x="510" y="540" width="60" height="60" as="geometry" />
        </mxCell>
        <mxCell id="eekpUcKEbpZ2ipYLjSLb-21" value="Gå opp til toppen igjen" style="rounded=1;whiteSpace=wrap;html=1;arcSize=23;" vertex="1" parent="1">
          <mxGeometry x="636" y="490" width="120" height="60" as="geometry" />
        </mxCell>
        <mxCell id="eekpUcKEbpZ2ipYLjSLb-22" value="" style="endArrow=none;html=1;rounded=0;exitX=1;exitY=0;exitDx=0;exitDy=0;entryX=0;entryY=0.5;entryDx=0;entryDy=0;" edge="1" parent="1" source="eekpUcKEbpZ2ipYLjSLb-20" target="eekpUcKEbpZ2ipYLjSLb-21">
          <mxGeometry width="50" height="50" relative="1" as="geometry">
            <mxPoint x="630" y="550" as="sourcePoint" />
            <mxPoint x="680" y="500" as="targetPoint" />
          </mxGeometry>
        </mxCell>
        <mxCell id="eekpUcKEbpZ2ipYLjSLb-23" value="" style="endArrow=none;html=1;rounded=0;exitX=1;exitY=0.5;exitDx=0;exitDy=0;entryX=0;entryY=0.5;entryDx=0;entryDy=0;" edge="1" parent="1" source="eekpUcKEbpZ2ipYLjSLb-11" target="eekpUcKEbpZ2ipYLjSLb-21">
          <mxGeometry width="50" height="50" relative="1" as="geometry">
            <mxPoint x="570" y="460" as="sourcePoint" />
            <mxPoint x="630" y="390" as="targetPoint" />
          </mxGeometry>
        </mxCell>
        <mxCell id="eekpUcKEbpZ2ipYLjSLb-24" value="" style="endArrow=none;html=1;rounded=0;exitX=0.5;exitY=0;exitDx=0;exitDy=0;entryX=0.5;entryY=1;entryDx=0;entryDy=0;" edge="1" parent="1" source="eekpUcKEbpZ2ipYLjSLb-25" target="eekpUcKEbpZ2ipYLjSLb-20">
          <mxGeometry width="50" height="50" relative="1" as="geometry">
            <mxPoint x="630" y="650" as="sourcePoint" />
            <mxPoint x="570" y="600" as="targetPoint" />
          </mxGeometry>
        </mxCell>
        <mxCell id="eekpUcKEbpZ2ipYLjSLb-25" value="Muligheten til å gå til alle prosjektene mine" style="rounded=1;whiteSpace=wrap;html=1;arcSize=23;" vertex="1" parent="1">
          <mxGeometry x="510" y="650" width="120" height="60" as="geometry" />
        </mxCell>
      </root>
    </mxGraphModel>
  </diagram>
</mxfile>
